ModelForces
version=1
nRows=6
nColumns=103
inDegrees=no

This file contains the forces exerted on a model during a simulation.

A force is a generalized force, meaning that it can be either a force (N) or a torque (Nm).

Units are S.I. units (second, meters, Newtons, ...)
Angles are in degrees.

endheader
time	glut_med1_r	glut_med2_r	glut_med3_r	glut_min1_r	glut_min2_r	glut_min3_r	semimem_r	semiten_r	bifemlh_r	bifemsh_r	sar_r	add_long_r	add_brev_r	add_mag1_r	add_mag2_r	add_mag3_r	tfl_r	pect_r	grac_r	glut_max1_r	glut_max2_r	glut_max3_r	iliacus_r	psoas_r	quad_fem_r	gem_r	peri_r	rect_fem_r	vas_med_r	vas_int_r	vas_lat_r	med_gas_r	lat_gas_r	soleus_r	tib_post_r	flex_dig_r	flex_hal_r	tib_ant_r	per_brev_r	per_long_r	per_tert_r	ext_dig_r	ext_hal_r	glut_med1_l	glut_med2_l	glut_med3_l	glut_min1_l	glut_min2_l	glut_min3_l	semimem_l	semiten_l	bifemlh_l	bifemsh_l	sar_l	add_long_l	add_brev_l	add_mag1_l	add_mag2_l	add_mag3_l	tfl_l	pect_l	grac_l	glut_max1_l	glut_max2_l	glut_max3_l	iliacus_l	psoas_l	quad_fem_l	gem_l	peri_l	rect_fem_l	vas_med_l	vas_int_l	vas_lat_l	med_gas_l	lat_gas_l	soleus_l	tib_post_l	flex_dig_l	flex_hal_l	tib_ant_l	per_brev_l	per_long_l	per_tert_l	ext_dig_l	ext_hal_l	ercspn_r	ercspn_l	intobl_r	intobl_l	extobl_r	extobl_l	aACL_R	pACL_R	aPCL_R	pPCL_R	aMCL_R	aLCL_R	aPCL_L	pPCL_L	aMCL_L	aLCL_L
      0.03333333	      0.00000000	      0.00000000	      0.00000000	      7.92792383	     15.62829224	      0.00000000	      0.00000000	     37.65380973	      0.00000000	     44.93443427	     54.15671507	     11.55658881	     10.15143465	      0.00000000	      0.00000000	      7.56282068	      0.00000000	      0.00000000	     35.18295215	      0.00000000	      0.00000000	     13.06802301	     39.33040728	     36.56228588	      0.00000000	      2.85576680	      0.00000000	      0.00000000	      0.00000000	      0.00000000	      0.00000000	      0.00000000	      0.00000000	      0.00000000	     10.52519153	      0.00000000	      0.00000000	      0.00000000	      0.00000000	      9.49870061	      9.38470918	     29.98312004	      9.17959109	      0.00000000	      0.00000000	      0.00000000	      0.00000000	      0.00000000	      0.00000000	      0.00000000	     11.43561571	      2.52035939	     15.41766973	      4.14216906	     17.50659399	     13.18990682	      0.00000000	      0.00000000	      9.51717967	     10.14070939	      0.00000000	      3.81589767	      0.00000000	      0.00000000	     19.93624991	     42.38857635	     39.06386143	      0.00000000	     11.42848612	      0.00000000	     26.19023747	      0.00000000	      0.00000000	      0.00000000	      0.00000000	      0.00000000	      0.00000000	     23.52512267	      0.00000000	      0.00000000	      0.00000000	      7.61654273	     20.91865311	     10.17760158	     11.69482597	      4.18805269	     90.56576895	     90.56576895	     33.84403695	     33.84403695	     51.60904610	     51.60904610	    -66.49716892	    105.06011400	      0.00000000	     44.71627653	      0.00000000	      0.00000000	      0.00000000	      0.00000000	    -18.45429650	      0.00000000
      0.03400000	      0.00000000	      0.00000000	      0.00000000	      9.85185044	     15.66483276	      0.00000000	      0.00000000	     36.90025137	      0.00000000	     44.23307457	     53.61059167	     11.50929151	     10.26349846	      0.00000000	      0.00000000	      8.11384787	      0.00000000	      0.00000000	     35.02386272	      0.00000000	      0.00000000	     13.83939857	     38.45610514	     35.58812582	      0.00000000	      2.94414316	      0.00000000	      0.00000000	      0.00000000	      0.00000000	      0.00000000	      0.00000000	      0.00000000	      0.00000000	      9.81799478	      0.00000000	      0.00000000	      0.00000000	      0.52663105	      9.72805204	     11.76947694	     29.77599720	      9.09902052	      0.00000000	      0.00000000	      0.00000000	      0.00000000	      0.00000000	      0.00000000	      0.00000000	     11.26695459	      3.36372817	     15.16878526	      4.08448802	     17.20472738	     12.97760145	      0.00000000	      0.00000000	      9.84265650	      9.92093587	      0.00000000	      3.75433413	      0.00000000	      0.00000000	     20.10991217	     41.99435123	     38.49291560	      0.00000000	     11.38034043	      0.00000000	     25.73704479	      0.00000000	      0.00000000	      0.00000000	      0.00000000	      0.00000000	      0.00000000	     24.20970161	      0.00000000	      0.00000000	      0.00000000	      7.41171829	     20.56393154	     10.13241217	     11.49776033	      4.10078575	     89.95914636	     89.95914636	     33.71307617	     33.71307617	     51.36127556	     51.36127556	    -73.36944107	    114.80863070	      0.00000000	     47.70124920	      0.00000000	      0.00000000	      0.00000000	      0.00000000	    -20.13866472	      0.00000000
      0.03500000	      0.00000000	      0.00000000	      0.00000000	     11.71584029	     15.48047973	      0.00000000	      0.00000000	     35.91926395	      0.00000000	     43.48442767	     52.81193955	     11.44628021	     10.44771961	      0.00000000	      0.00000000	      8.92131583	      0.00000000	      0.00000000	     34.84679264	      0.00000000	      0.00000000	     15.07287252	     37.15591745	     34.13190352	      0.00000000	      3.07654203	      0.00000000	      0.00000000	      0.00000000	      0.00000000	      0.00000000	      0.00000000	      0.00000000	      0.00000000	      8.77037519	      0.00000000	      0.00000000	      0.00000000	      1.44228750	     10.00783338	      7.76366619	     29.45843282	      8.97439754	      0.00000000	      0.00000000	      0.00000000	      0.00000000	      0.00000000	      0.00000000	      0.00000000	     11.01780012	      4.48872396	     14.81791528	      4.00940191	     16.76129344	     12.66581854	      0.00000000	      0.00000000	     10.28464751	      9.59727313	      0.00000000	      3.67026982	      0.00000000	      0.00000000	     20.23961554	     41.43263135	     37.67291658	      0.00000000	     11.30910727	      0.00000000	     25.06868772	      0.00000000	      0.00000000	      0.00000000	      0.00000000	      0.00000000	      0.00000000	     25.27098064	      0.00000000	      0.00000000	      0.00000000	      7.04843326	     19.95511212	     10.03011938	     11.18042815	      3.97062520	     89.06044616	     89.06044616	     33.50753514	     33.50753514	     50.99585101	     50.99585101	    -83.79139192	    130.12682850	      0.00000000	     52.38290573	      0.00000000	      0.00000000	      0.00000000	      0.00000000	    -22.07207993	      0.00000000
      0.03600000	      0.00000000	      0.00000000	      0.00000000	     12.35797588	     15.19083525	      0.00000000	      0.00000000	     35.11258201	      0.00000000	     43.09274485	     52.03205736	     11.39091945	     10.65238216	      0.00000000	      0.00000000	      9.71703530	      0.00000000	      0.00000000	     34.74121168	      0.00000000	      0.00000000	     16.45683884	     35.86884992	     32.68227260	      0.00000000	      3.21336009	      0.00000000	      0.00000000	      0.00000000	      0.00000000	      0.00000000	      0.00000000	      0.00000000	      0.00000000	      7.73211071	      0.00000000	      0.00000000	      0.00000000	      2.21134116	     10.21935111	     11.72257916	     29.14180968	      8.84457805	      0.00000000	      0.00000000	      0.00000000	      0.00000000	      0.00000000	      0.00000000	      0.00000000	     10.77934390	      5.47612730	     14.50225694	      3.94618379	     16.33001534	     12.36289059	      0.00000000	      0.00000000	     10.67524480	      9.28439634	      0.00000000	      3.59629547	      0.00000000	      0.00000000	     20.24474273	     40.90372582	     36.89484405	      0.00000000	     11.23901452	      0.00000000	     24.42575245	      0.00000000	      0.00000000	      0.00000000	      0.00000000	      0.00000000	      0.00000000	     26.37053547	      0.00000000	      0.00000000	      0.00000000	      6.63881897	     19.27367314	      9.90697181	     10.84043424	      3.84063843	     88.17501719	     88.17501719	     33.29215282	     33.29215282	     50.63760006	     50.63760006	    -93.81104460	    145.67692153	      0.00000000	     57.92569188	      0.00000000	      0.00000000	      0.00000000	      0.00000000	    -23.39237317	      0.00000000
      0.03647972	      0.00000000	      0.00000000	      0.00000000	     12.35626888	     15.03435176	      0.00000000	      0.00000000	     34.78818829	      0.00000000	     43.04255113	     51.67345226	     11.36660936	     10.75794440	      0.00000000	      0.00000000	     10.09792058	      0.00000000	      0.00000000	     34.71877680	      0.00000000	      0.00000000	     17.16096192	     35.25653380	     31.98971896	      0.00000000	      3.28179020	      0.00000000	      0.00000000	      0.00000000	      0.00000000	      0.00000000	      0.00000000	      0.00000000	      0.00000000	      7.24087133	      0.00000000	      0.00000000	      0.00000000	      2.53737100	     10.29596486	     12.73529281	     28.98710925	      8.78005127	      0.00000000	      0.00000000	      0.00000000	      0.00000000	      0.00000000	      0.00000000	      0.00000000	     10.67010781	      5.90873167	     14.36411523	      3.91944819	     16.12765832	     12.22088679	      0.00000000	      0.00000000	     10.84562328	      9.13902220	      0.00000000	      3.56418616	      0.00000000	      0.00000000	     20.21388670	     40.66071121	     36.53581851	      0.00000000	     11.20577844	      0.00000000	     24.12902614	      0.00000000	      0.00000000	      0.00000000	      0.00000000	      0.00000000	      0.00000000	     26.91028276	      0.00000000	      0.00000000	      0.00000000	      6.43215156	     18.92712598	      9.84472995	     10.67051657	      3.77818454	     87.75489976	     87.75489976	     33.18567814	     33.18567814	     50.46819233	     50.46819233	    -98.36203473	    153.22422260	      0.00000000	     60.91247514	      0.00000000	      0.00000000	      0.00000000	      0.00000000	    -23.83879813	      0.00000000
      0.03664709	      0.00000000	      0.00000000	      0.00000000	     12.32811846	     14.97761861	      0.00000000	      0.00000000	     34.68467728	      0.00000000	     43.04674308	     51.55037793	     11.35845454	     10.79608655	      0.00000000	      0.00000000	     10.23101164	      0.00000000	      0.00000000	     34.71545029	      0.00000000	      0.00000000	     17.41003441	     35.04370983	     31.74857474	      0.00000000	      3.30620715	      0.00000000	      0.00000000	      0.00000000	      0.00000000	      0.00000000	      0.00000000	      0.00000000	      0.00000000	      7.07065427	      0.00000000	      0.00000000	      0.00000000	      2.64519543	     10.31897596	     12.75976656	     28.93274134	      8.75714973	      0.00000000	      0.00000000	      0.00000000	      0.00000000	      0.00000000	      0.00000000	      0.00000000	     10.63287427	      6.05403313	     14.31791188	      3.91060906	     16.05776357	     12.17184888	      0.00000000	      0.00000000	     10.90259079	      9.08909041	      0.00000000	      3.55346533	      0.00000000	      0.00000000	     20.19904879	     40.57746255	     36.41265903	      0.00000000	     11.19424026	      0.00000000	     24.02747168	      0.00000000	      0.00000000	      0.00000000	      0.00000000	      0.00000000	      0.00000000	     27.10030671	      0.00000000	      0.00000000	      0.00000000	      6.35907176	     18.80381235	      9.82281755	     10.61032516	      3.75637041	     87.60902701	     87.60902701	     33.14808294	     33.14808294	     50.40945332	     50.40945332	    -99.88719128	    156.09117038	    173.01914098	     58.26856973	      0.00000000	      0.00000000	      0.00000000	      0.00000000	    -23.96343451	      0.00000000
